<mxfile host="app.diagrams.net" modified="2021-07-02T13:20:29.336Z" agent="5.0 (Windows NT 10.0; Win64; x64) AppleWebKit/537.36 (KHTML, like Gecko) Chrome/91.0.4472.102 Safari/537.36" etag="m7OQeMFk_7Rm_toFuY_8" version="14.6.6" type="github">
  <diagram id="kgpKYQtTHZ0yAKxKKP6v" name="Page-1">
    <mxGraphModel dx="994" dy="617" grid="0" gridSize="5" guides="1" tooltips="0" connect="1" arrows="0" fold="1" page="1" pageScale="1" pageWidth="1654" pageHeight="1169" background="none" math="0" shadow="0">
      <root>
        <mxCell id="0" />
        <mxCell id="1" parent="0" />
        <mxCell id="1gG3ntM72JU_8PpS5YJa-190" value="API: Java Socket" style="verticalAlign=middle;endArrow=block;shadow=0;strokeWidth=1;labelBorderColor=#CCCCCC;fontSize=9;entryX=-0.014;entryY=0.302;entryDx=0;entryDy=0;entryPerimeter=0;" edge="1" parent="1">
          <mxGeometry relative="1" as="geometry">
            <mxPoint x="587" y="774.5999999999999" as="sourcePoint" />
            <mxPoint x="736.8599999999997" y="774" as="targetPoint" />
            <Array as="points">
              <mxPoint x="635.5" y="774.6" />
            </Array>
          </mxGeometry>
        </mxCell>
        <mxCell id="1gG3ntM72JU_8PpS5YJa-27" value="Client" style="shape=umlLifeline;perimeter=lifelinePerimeter;container=1;collapsible=0;recursiveResize=0;shadow=0;strokeWidth=1;" vertex="1" parent="1">
          <mxGeometry x="62" y="275" width="80" height="300" as="geometry" />
        </mxCell>
        <mxCell id="1gG3ntM72JU_8PpS5YJa-28" value="" style="points=[];perimeter=orthogonalPerimeter;shadow=0;strokeWidth=1;" vertex="1" parent="1gG3ntM72JU_8PpS5YJa-27">
          <mxGeometry x="35" y="60" width="10" height="220" as="geometry" />
        </mxCell>
        <mxCell id="1gG3ntM72JU_8PpS5YJa-29" value="run" style="verticalAlign=bottom;startArrow=oval;endArrow=block;startSize=8;shadow=0;strokeWidth=1;" edge="1" parent="1gG3ntM72JU_8PpS5YJa-27" target="1gG3ntM72JU_8PpS5YJa-28">
          <mxGeometry relative="1" as="geometry">
            <mxPoint y="60" as="sourcePoint" />
          </mxGeometry>
        </mxCell>
        <mxCell id="1gG3ntM72JU_8PpS5YJa-37" value="&lt;span style=&quot;font-size: 18px&quot;&gt;1a. Access to the Game: Client/Server Connection&lt;/span&gt;" style="text;html=1;strokeColor=none;fillColor=none;align=left;verticalAlign=middle;whiteSpace=wrap;" vertex="1" parent="1">
          <mxGeometry x="62" y="235" width="1020" height="20" as="geometry" />
        </mxCell>
        <mxCell id="1gG3ntM72JU_8PpS5YJa-85" value="ClientNet&#xa;Interface" style="shape=umlLifeline;perimeter=lifelinePerimeter;container=1;collapsible=0;recursiveResize=0;shadow=0;strokeWidth=1;" vertex="1" parent="1">
          <mxGeometry x="182" y="275" width="80" height="300" as="geometry" />
        </mxCell>
        <mxCell id="1gG3ntM72JU_8PpS5YJa-86" value="" style="points=[];perimeter=orthogonalPerimeter;shadow=0;strokeWidth=1;" vertex="1" parent="1gG3ntM72JU_8PpS5YJa-85">
          <mxGeometry x="35" y="70" width="10" height="210" as="geometry" />
        </mxCell>
        <mxCell id="1gG3ntM72JU_8PpS5YJa-88" value="constructor(address, &#xa;serverPort, localPort)" style="verticalAlign=middle;endArrow=block;shadow=0;strokeWidth=1;labelBorderColor=#CCCCCC;fontSize=9;" edge="1" parent="1" source="1gG3ntM72JU_8PpS5YJa-28">
          <mxGeometry x="-0.0393" relative="1" as="geometry">
            <mxPoint x="152" y="425" as="sourcePoint" />
            <mxPoint x="217" y="345" as="targetPoint" />
            <Array as="points">
              <mxPoint x="162" y="345" />
            </Array>
            <mxPoint as="offset" />
          </mxGeometry>
        </mxCell>
        <mxCell id="1gG3ntM72JU_8PpS5YJa-90" value="Serializer" style="shape=umlLifeline;perimeter=lifelinePerimeter;container=1;collapsible=0;recursiveResize=0;shadow=0;strokeWidth=1;" vertex="1" parent="1">
          <mxGeometry x="302" y="275" width="80" height="300" as="geometry" />
        </mxCell>
        <mxCell id="1gG3ntM72JU_8PpS5YJa-91" value="" style="points=[];perimeter=orthogonalPerimeter;shadow=0;strokeWidth=1;" vertex="1" parent="1gG3ntM72JU_8PpS5YJa-90">
          <mxGeometry x="35" y="60" width="10" height="220" as="geometry" />
        </mxCell>
        <mxCell id="1gG3ntM72JU_8PpS5YJa-92" value="Listener" style="shape=umlLifeline;perimeter=lifelinePerimeter;container=1;collapsible=0;recursiveResize=0;shadow=0;strokeWidth=1;" vertex="1" parent="1">
          <mxGeometry x="422" y="275" width="80" height="300" as="geometry" />
        </mxCell>
        <mxCell id="1gG3ntM72JU_8PpS5YJa-93" value="" style="points=[];perimeter=orthogonalPerimeter;shadow=0;strokeWidth=1;" vertex="1" parent="1gG3ntM72JU_8PpS5YJa-92">
          <mxGeometry x="35" y="80" width="10" height="200" as="geometry" />
        </mxCell>
        <mxCell id="1gG3ntM72JU_8PpS5YJa-94" value="Sender" style="shape=umlLifeline;perimeter=lifelinePerimeter;container=1;collapsible=0;recursiveResize=0;shadow=0;strokeWidth=1;" vertex="1" parent="1">
          <mxGeometry x="542" y="275" width="80" height="300" as="geometry" />
        </mxCell>
        <mxCell id="1gG3ntM72JU_8PpS5YJa-95" value="" style="points=[];perimeter=orthogonalPerimeter;shadow=0;strokeWidth=1;" vertex="1" parent="1gG3ntM72JU_8PpS5YJa-94">
          <mxGeometry x="35" y="100" width="10" height="180" as="geometry" />
        </mxCell>
        <mxCell id="1gG3ntM72JU_8PpS5YJa-96" value="Listener" style="shape=umlLifeline;perimeter=lifelinePerimeter;container=1;collapsible=0;recursiveResize=0;shadow=0;strokeWidth=1;" vertex="1" parent="1">
          <mxGeometry x="702" y="275" width="80" height="300" as="geometry" />
        </mxCell>
        <mxCell id="1gG3ntM72JU_8PpS5YJa-97" value="" style="points=[];perimeter=orthogonalPerimeter;shadow=0;strokeWidth=1;" vertex="1" parent="1gG3ntM72JU_8PpS5YJa-96">
          <mxGeometry x="35" y="90" width="10" height="190" as="geometry" />
        </mxCell>
        <mxCell id="1gG3ntM72JU_8PpS5YJa-98" value="Sender" style="shape=umlLifeline;perimeter=lifelinePerimeter;container=1;collapsible=0;recursiveResize=0;shadow=0;strokeWidth=1;" vertex="1" parent="1">
          <mxGeometry x="822" y="275" width="80" height="300" as="geometry" />
        </mxCell>
        <mxCell id="1gG3ntM72JU_8PpS5YJa-99" value="" style="points=[];perimeter=orthogonalPerimeter;shadow=0;strokeWidth=1;" vertex="1" parent="1gG3ntM72JU_8PpS5YJa-98">
          <mxGeometry x="35" y="240" width="10" height="40" as="geometry" />
        </mxCell>
        <mxCell id="1gG3ntM72JU_8PpS5YJa-100" value="Serializer" style="shape=umlLifeline;perimeter=lifelinePerimeter;container=1;collapsible=0;recursiveResize=0;shadow=0;strokeWidth=1;" vertex="1" parent="1">
          <mxGeometry x="942" y="275" width="80" height="300" as="geometry" />
        </mxCell>
        <mxCell id="1gG3ntM72JU_8PpS5YJa-101" value="" style="points=[];perimeter=orthogonalPerimeter;shadow=0;strokeWidth=1;" vertex="1" parent="1gG3ntM72JU_8PpS5YJa-100">
          <mxGeometry x="35" y="60" width="10" height="220" as="geometry" />
        </mxCell>
        <mxCell id="1gG3ntM72JU_8PpS5YJa-102" value="ServerNet&#xa;Interface" style="shape=umlLifeline;perimeter=lifelinePerimeter;container=1;collapsible=0;recursiveResize=0;shadow=0;strokeWidth=1;labelBackgroundColor=#ffffff;" vertex="1" parent="1">
          <mxGeometry x="1062" y="275" width="80" height="300" as="geometry" />
        </mxCell>
        <mxCell id="1gG3ntM72JU_8PpS5YJa-103" value="" style="points=[];perimeter=orthogonalPerimeter;shadow=0;strokeWidth=1;labelBackgroundColor=#ffffff;labelBorderColor=none;rounded=0;glass=0;fillColor=#FFFFFF;" vertex="1" parent="1gG3ntM72JU_8PpS5YJa-102">
          <mxGeometry x="35" y="80" width="10" height="200" as="geometry" />
        </mxCell>
        <mxCell id="1gG3ntM72JU_8PpS5YJa-104" value="ServerNet&#xa;Controller" style="shape=umlLifeline;perimeter=lifelinePerimeter;container=1;collapsible=0;recursiveResize=0;shadow=0;strokeWidth=1;" vertex="1" parent="1">
          <mxGeometry x="1182" y="275" width="80" height="300" as="geometry" />
        </mxCell>
        <mxCell id="1gG3ntM72JU_8PpS5YJa-105" value="" style="points=[];perimeter=orthogonalPerimeter;shadow=0;strokeWidth=1;" vertex="1" parent="1gG3ntM72JU_8PpS5YJa-104">
          <mxGeometry x="35" y="75" width="10" height="205" as="geometry" />
        </mxCell>
        <mxCell id="1gG3ntM72JU_8PpS5YJa-106" value="Server" style="shape=umlLifeline;perimeter=lifelinePerimeter;container=1;collapsible=0;recursiveResize=0;shadow=0;strokeWidth=1;" vertex="1" parent="1">
          <mxGeometry x="1302" y="275" width="80" height="300" as="geometry" />
        </mxCell>
        <mxCell id="1gG3ntM72JU_8PpS5YJa-107" value="" style="points=[];perimeter=orthogonalPerimeter;shadow=0;strokeWidth=1;" vertex="1" parent="1gG3ntM72JU_8PpS5YJa-106">
          <mxGeometry x="35" y="60" width="10" height="220" as="geometry" />
        </mxCell>
        <mxCell id="1gG3ntM72JU_8PpS5YJa-109" value="constructor(localPort)" style="verticalAlign=middle;endArrow=block;shadow=0;strokeWidth=1;labelBorderColor=#CCCCCC;fontSize=9;" edge="1" parent="1">
          <mxGeometry relative="1" as="geometry">
            <mxPoint x="227.5" y="355" as="sourcePoint" />
            <mxPoint x="457" y="355" as="targetPoint" />
            <Array as="points">
              <mxPoint x="283" y="355" />
            </Array>
          </mxGeometry>
        </mxCell>
        <mxCell id="1gG3ntM72JU_8PpS5YJa-111" value="return" style="verticalAlign=middle;endArrow=open;dashed=1;endSize=8;shadow=0;strokeWidth=1;sketch=0;align=center;labelBorderColor=#CCCCCC;fontSize=9;exitX=-0.16;exitY=0.06;exitDx=0;exitDy=0;exitPerimeter=0;" edge="1" parent="1" source="1gG3ntM72JU_8PpS5YJa-93">
          <mxGeometry x="0.0004" relative="1" as="geometry">
            <mxPoint x="227.05" y="365" as="targetPoint" />
            <mxPoint x="437" y="365" as="sourcePoint" />
            <Array as="points">
              <mxPoint x="376.95" y="365" />
              <mxPoint x="286.95" y="365" />
            </Array>
            <mxPoint as="offset" />
          </mxGeometry>
        </mxCell>
        <mxCell id="1gG3ntM72JU_8PpS5YJa-112" value="constructor(address, serverPort)" style="verticalAlign=middle;endArrow=block;shadow=0;strokeWidth=1;labelBorderColor=#CCCCCC;fontSize=9;entryX=0.048;entryY=0.243;entryDx=0;entryDy=0;entryPerimeter=0;" edge="1" parent="1">
          <mxGeometry relative="1" as="geometry">
            <mxPoint x="227" y="376" as="sourcePoint" />
            <mxPoint x="577.48" y="374.6" as="targetPoint" />
            <Array as="points">
              <mxPoint x="275.5" y="376" />
            </Array>
          </mxGeometry>
        </mxCell>
        <mxCell id="1gG3ntM72JU_8PpS5YJa-113" value="API: Java Socket" style="verticalAlign=middle;endArrow=block;shadow=0;strokeWidth=1;labelBorderColor=#CCCCCC;fontSize=9;entryX=-0.014;entryY=0.302;entryDx=0;entryDy=0;entryPerimeter=0;" edge="1" parent="1">
          <mxGeometry relative="1" as="geometry">
            <mxPoint x="587" y="385" as="sourcePoint" />
            <mxPoint x="736.8599999999999" y="384.4" as="targetPoint" />
            <Array as="points">
              <mxPoint x="635.5" y="385" />
            </Array>
          </mxGeometry>
        </mxCell>
        <mxCell id="1gG3ntM72JU_8PpS5YJa-114" value="return" style="verticalAlign=middle;endArrow=open;dashed=1;endSize=8;shadow=0;strokeWidth=1;sketch=0;align=center;labelBorderColor=#CCCCCC;fontSize=9;exitX=0.053;exitY=0.2;exitDx=0;exitDy=0;exitPerimeter=0;entryX=1.04;entryY=0.349;entryDx=0;entryDy=0;entryPerimeter=0;" edge="1" parent="1">
          <mxGeometry x="0.0004" relative="1" as="geometry">
            <mxPoint x="587.3999999999999" y="394.80000000000007" as="targetPoint" />
            <mxPoint x="737.4800000000001" y="395" as="sourcePoint" />
            <Array as="points">
              <mxPoint x="656.9" y="395" />
            </Array>
            <mxPoint as="offset" />
          </mxGeometry>
        </mxCell>
        <mxCell id="1gG3ntM72JU_8PpS5YJa-115" value="return" style="verticalAlign=middle;endArrow=open;dashed=1;endSize=8;shadow=0;strokeWidth=1;sketch=0;align=center;labelBorderColor=#CCCCCC;fontSize=9;" edge="1" parent="1" target="1gG3ntM72JU_8PpS5YJa-103">
          <mxGeometry x="0.0004" relative="1" as="geometry">
            <mxPoint x="1072" y="395" as="targetPoint" />
            <mxPoint x="747" y="395" as="sourcePoint" />
            <Array as="points">
              <mxPoint x="802" y="395" />
            </Array>
            <mxPoint as="offset" />
          </mxGeometry>
        </mxCell>
        <mxCell id="1gG3ntM72JU_8PpS5YJa-116" value="run" style="verticalAlign=bottom;startArrow=oval;endArrow=block;startSize=8;shadow=0;strokeWidth=1;" edge="1" parent="1" target="1gG3ntM72JU_8PpS5YJa-107">
          <mxGeometry relative="1" as="geometry">
            <mxPoint x="1382" y="335" as="sourcePoint" />
            <mxPoint x="1382" y="335" as="targetPoint" />
          </mxGeometry>
        </mxCell>
        <mxCell id="1gG3ntM72JU_8PpS5YJa-118" value="Constructor (Thread)" style="verticalAlign=middle;endArrow=block;shadow=0;strokeWidth=1;labelBorderColor=#CCCCCC;fontSize=9;exitX=-0.014;exitY=0.812;exitDx=0;exitDy=0;exitPerimeter=0;" edge="1" parent="1">
          <mxGeometry x="-0.0023" y="-1" relative="1" as="geometry">
            <mxPoint x="1336.86" y="349.24" as="sourcePoint" />
            <mxPoint x="1227" y="349.24" as="targetPoint" />
            <Array as="points" />
            <mxPoint as="offset" />
          </mxGeometry>
        </mxCell>
        <mxCell id="1gG3ntM72JU_8PpS5YJa-119" value="Constructor " style="verticalAlign=middle;endArrow=block;shadow=0;strokeWidth=1;labelBorderColor=#CCCCCC;fontSize=9;exitX=-0.162;exitY=0.154;exitDx=0;exitDy=0;exitPerimeter=0;" edge="1" parent="1">
          <mxGeometry relative="1" as="geometry">
            <mxPoint x="1217.3799999999999" y="354.79999999999995" as="sourcePoint" />
            <mxPoint x="1107" y="354.79999999999995" as="targetPoint" />
            <Array as="points" />
          </mxGeometry>
        </mxCell>
        <mxCell id="1gG3ntM72JU_8PpS5YJa-120" value="Constructor(serverPort) " style="verticalAlign=middle;endArrow=block;shadow=0;strokeWidth=1;labelBorderColor=#CCCCCC;fontSize=9;" edge="1" parent="1" source="1gG3ntM72JU_8PpS5YJa-103">
          <mxGeometry relative="1" as="geometry">
            <mxPoint x="1092" y="364" as="sourcePoint" />
            <mxPoint x="747" y="365" as="targetPoint" />
            <Array as="points" />
          </mxGeometry>
        </mxCell>
        <mxCell id="1gG3ntM72JU_8PpS5YJa-121" value="return" style="verticalAlign=middle;endArrow=open;dashed=1;endSize=8;shadow=0;strokeWidth=1;sketch=0;align=center;labelBorderColor=#CCCCCC;fontSize=9;" edge="1" parent="1" source="1gG3ntM72JU_8PpS5YJa-95" target="1gG3ntM72JU_8PpS5YJa-86">
          <mxGeometry x="0.0004" relative="1" as="geometry">
            <mxPoint x="252" y="404" as="targetPoint" />
            <mxPoint x="562" y="405" as="sourcePoint" />
            <Array as="points">
              <mxPoint x="501.5" y="405" />
            </Array>
            <mxPoint as="offset" />
          </mxGeometry>
        </mxCell>
        <mxCell id="1gG3ntM72JU_8PpS5YJa-123" value="Serialize(ClientMessage&#xa;LocalPort)&#xa;" style="verticalAlign=middle;endArrow=block;shadow=0;strokeWidth=1;labelBorderColor=#CCCCCC;fontSize=9;" edge="1" parent="1">
          <mxGeometry x="-0.0065" relative="1" as="geometry">
            <mxPoint x="227" y="425" as="sourcePoint" />
            <mxPoint x="337" y="425.29999999999995" as="targetPoint" />
            <Array as="points">
              <mxPoint x="281.63999999999993" y="425.29999999999995" />
            </Array>
            <mxPoint as="offset" />
          </mxGeometry>
        </mxCell>
        <mxCell id="1gG3ntM72JU_8PpS5YJa-124" value="return rawMessage" style="verticalAlign=middle;endArrow=open;dashed=1;endSize=8;shadow=0;strokeWidth=1;sketch=0;align=center;labelBorderColor=#CCCCCC;fontSize=9;" edge="1" parent="1" source="1gG3ntM72JU_8PpS5YJa-91" target="1gG3ntM72JU_8PpS5YJa-86">
          <mxGeometry x="0.0004" relative="1" as="geometry">
            <mxPoint x="252" y="445" as="targetPoint" />
            <mxPoint x="332" y="445" as="sourcePoint" />
            <Array as="points">
              <mxPoint x="312" y="445" />
            </Array>
            <mxPoint as="offset" />
          </mxGeometry>
        </mxCell>
        <mxCell id="1gG3ntM72JU_8PpS5YJa-125" value="send(rawMessage)" style="verticalAlign=middle;endArrow=block;shadow=0;strokeWidth=1;labelBorderColor=#CCCCCC;fontSize=9;entryX=0.048;entryY=0.243;entryDx=0;entryDy=0;entryPerimeter=0;" edge="1" parent="1">
          <mxGeometry relative="1" as="geometry">
            <mxPoint x="227" y="455.4" as="sourcePoint" />
            <mxPoint x="577.48" y="453.9999999999999" as="targetPoint" />
            <Array as="points">
              <mxPoint x="275.5" y="455.4" />
            </Array>
          </mxGeometry>
        </mxCell>
        <mxCell id="1gG3ntM72JU_8PpS5YJa-126" value="API: Java Socket" style="verticalAlign=middle;endArrow=block;shadow=0;strokeWidth=1;labelBorderColor=#CCCCCC;fontSize=9;entryX=-0.014;entryY=0.302;entryDx=0;entryDy=0;entryPerimeter=0;" edge="1" parent="1">
          <mxGeometry relative="1" as="geometry">
            <mxPoint x="587" y="465.6" as="sourcePoint" />
            <mxPoint x="736.8599999999999" y="465.0000000000001" as="targetPoint" />
            <Array as="points">
              <mxPoint x="635.5" y="465.6" />
            </Array>
          </mxGeometry>
        </mxCell>
        <mxCell id="1gG3ntM72JU_8PpS5YJa-127" value="return" style="verticalAlign=middle;endArrow=open;dashed=1;endSize=8;shadow=0;strokeWidth=1;sketch=0;align=center;labelBorderColor=#CCCCCC;fontSize=9;exitX=0.053;exitY=0.2;exitDx=0;exitDy=0;exitPerimeter=0;entryX=1.04;entryY=0.349;entryDx=0;entryDy=0;entryPerimeter=0;" edge="1" parent="1">
          <mxGeometry x="0.0004" relative="1" as="geometry">
            <mxPoint x="587.3999999999999" y="475.4000000000002" as="targetPoint" />
            <mxPoint x="737.48" y="475.6" as="sourcePoint" />
            <Array as="points">
              <mxPoint x="656.9" y="475.6" />
            </Array>
            <mxPoint as="offset" />
          </mxGeometry>
        </mxCell>
        <mxCell id="1gG3ntM72JU_8PpS5YJa-129" value="return" style="verticalAlign=middle;endArrow=open;dashed=1;endSize=8;shadow=0;strokeWidth=1;sketch=0;align=center;labelBorderColor=#CCCCCC;fontSize=9;" edge="1" parent="1">
          <mxGeometry x="0.0004" relative="1" as="geometry">
            <mxPoint x="1097" y="485" as="targetPoint" />
            <mxPoint x="747.0000000000002" y="485" as="sourcePoint" />
            <Array as="points">
              <mxPoint x="802" y="485" />
            </Array>
            <mxPoint as="offset" />
          </mxGeometry>
        </mxCell>
        <mxCell id="1gG3ntM72JU_8PpS5YJa-130" value="Deserialize(rawMessage)" style="verticalAlign=middle;endArrow=block;shadow=0;strokeWidth=1;labelBorderColor=#CCCCCC;fontSize=9;exitX=-0.162;exitY=0.154;exitDx=0;exitDy=0;exitPerimeter=0;entryX=0.879;entryY=0.15;entryDx=0;entryDy=0;entryPerimeter=0;" edge="1" parent="1">
          <mxGeometry relative="1" as="geometry">
            <mxPoint x="1098.5900000000001" y="494.79999999999995" as="sourcePoint" />
            <mxPoint x="987" y="494" as="targetPoint" />
            <Array as="points" />
          </mxGeometry>
        </mxCell>
        <mxCell id="1gG3ntM72JU_8PpS5YJa-131" value="return message" style="verticalAlign=middle;endArrow=open;dashed=1;endSize=8;shadow=0;strokeWidth=1;sketch=0;align=center;labelBorderColor=#CCCCCC;fontSize=9;exitX=0.978;exitY=0.901;exitDx=0;exitDy=0;exitPerimeter=0;" edge="1" parent="1">
          <mxGeometry x="0.0004" relative="1" as="geometry">
            <mxPoint x="1097" y="505" as="targetPoint" />
            <mxPoint x="986.78" y="505.1999999999998" as="sourcePoint" />
            <Array as="points">
              <mxPoint x="1022" y="505" />
            </Array>
            <mxPoint as="offset" />
          </mxGeometry>
        </mxCell>
        <mxCell id="1gG3ntM72JU_8PpS5YJa-132" value="Constructor(clientAddress, clientPort)" style="verticalAlign=middle;endArrow=block;shadow=0;strokeWidth=1;labelBorderColor=#CCCCCC;fontSize=9;exitX=0;exitY=0.793;exitDx=0;exitDy=0;exitPerimeter=0;" edge="1" parent="1">
          <mxGeometry x="-0.0753" relative="1" as="geometry">
            <mxPoint x="1097" y="515.355" as="sourcePoint" />
            <mxPoint x="867" y="515.355" as="targetPoint" />
            <Array as="points" />
            <mxPoint as="offset" />
          </mxGeometry>
        </mxCell>
        <mxCell id="1gG3ntM72JU_8PpS5YJa-133" value="return" style="verticalAlign=middle;endArrow=open;dashed=1;endSize=8;shadow=0;strokeWidth=1;sketch=0;align=center;labelBorderColor=#CCCCCC;fontSize=9;exitX=1.019;exitY=0.555;exitDx=0;exitDy=0;exitPerimeter=0;" edge="1" parent="1">
          <mxGeometry x="0.0004" relative="1" as="geometry">
            <mxPoint x="1097" y="526" as="targetPoint" />
            <mxPoint x="867.19" y="525.8000000000001" as="sourcePoint" />
            <Array as="points">
              <mxPoint x="917" y="526" />
            </Array>
            <mxPoint as="offset" />
          </mxGeometry>
        </mxCell>
        <mxCell id="1gG3ntM72JU_8PpS5YJa-134" value="return" style="verticalAlign=middle;endArrow=open;dashed=1;endSize=8;shadow=0;strokeWidth=1;sketch=0;align=center;labelBorderColor=#CCCCCC;fontSize=9;exitX=1.019;exitY=0.555;exitDx=0;exitDy=0;exitPerimeter=0;" edge="1" parent="1" target="1gG3ntM72JU_8PpS5YJa-105">
          <mxGeometry x="0.0004" relative="1" as="geometry">
            <mxPoint x="1202" y="535" as="targetPoint" />
            <mxPoint x="1107.0900000000001" y="535" as="sourcePoint" />
            <Array as="points">
              <mxPoint x="1156.9" y="535.2" />
            </Array>
            <mxPoint as="offset" />
          </mxGeometry>
        </mxCell>
        <mxCell id="1gG3ntM72JU_8PpS5YJa-135" value="return" style="verticalAlign=middle;endArrow=open;dashed=1;endSize=8;shadow=0;strokeWidth=1;sketch=0;align=center;labelBorderColor=#CCCCCC;fontSize=9;" edge="1" parent="1">
          <mxGeometry x="0.0004" relative="1" as="geometry">
            <mxPoint x="227" y="485" as="targetPoint" />
            <mxPoint x="577" y="485" as="sourcePoint" />
            <Array as="points">
              <mxPoint x="501.5" y="485" />
            </Array>
            <mxPoint as="offset" />
          </mxGeometry>
        </mxCell>
        <mxCell id="1gG3ntM72JU_8PpS5YJa-136" value="return ClientNetInterface" style="verticalAlign=middle;endArrow=open;dashed=1;endSize=8;shadow=0;strokeWidth=1;sketch=0;align=center;labelBorderColor=#CCCCCC;fontSize=9;exitX=0.039;exitY=0.601;exitDx=0;exitDy=0;exitPerimeter=0;" edge="1" parent="1">
          <mxGeometry x="-0.0871" relative="1" as="geometry">
            <mxPoint x="107" y="495" as="targetPoint" />
            <mxPoint x="217.38999999999987" y="495.19999999999993" as="sourcePoint" />
            <Array as="points" />
            <mxPoint as="offset" />
          </mxGeometry>
        </mxCell>
        <mxCell id="1gG3ntM72JU_8PpS5YJa-137" value="Client" style="shape=umlLifeline;perimeter=lifelinePerimeter;container=1;collapsible=0;recursiveResize=0;shadow=0;strokeWidth=1;" vertex="1" parent="1">
          <mxGeometry x="62" y="655" width="80" height="280" as="geometry" />
        </mxCell>
        <mxCell id="1gG3ntM72JU_8PpS5YJa-138" value="" style="points=[];perimeter=orthogonalPerimeter;shadow=0;strokeWidth=1;" vertex="1" parent="1gG3ntM72JU_8PpS5YJa-137">
          <mxGeometry x="35" y="60" width="10" height="200" as="geometry" />
        </mxCell>
        <mxCell id="1gG3ntM72JU_8PpS5YJa-140" value="&lt;span style=&quot;font-size: 18px&quot;&gt;1b. Access to the Game: Join Game&lt;/span&gt;" style="text;html=1;strokeColor=none;fillColor=none;align=left;verticalAlign=middle;whiteSpace=wrap;" vertex="1" parent="1">
          <mxGeometry x="62" y="615" width="1020" height="20" as="geometry" />
        </mxCell>
        <mxCell id="1gG3ntM72JU_8PpS5YJa-141" value="ClientNet&#xa;Interface" style="shape=umlLifeline;perimeter=lifelinePerimeter;container=1;collapsible=0;recursiveResize=0;shadow=0;strokeWidth=1;" vertex="1" parent="1">
          <mxGeometry x="182" y="655" width="80" height="280" as="geometry" />
        </mxCell>
        <mxCell id="1gG3ntM72JU_8PpS5YJa-142" value="" style="points=[];perimeter=orthogonalPerimeter;shadow=0;strokeWidth=1;" vertex="1" parent="1gG3ntM72JU_8PpS5YJa-141">
          <mxGeometry x="35" y="60" width="10" height="200" as="geometry" />
        </mxCell>
        <mxCell id="1gG3ntM72JU_8PpS5YJa-144" value="Serializer" style="shape=umlLifeline;perimeter=lifelinePerimeter;container=1;collapsible=0;recursiveResize=0;shadow=0;strokeWidth=1;" vertex="1" parent="1">
          <mxGeometry x="302" y="655" width="80" height="280" as="geometry" />
        </mxCell>
        <mxCell id="1gG3ntM72JU_8PpS5YJa-145" value="" style="points=[];perimeter=orthogonalPerimeter;shadow=0;strokeWidth=1;" vertex="1" parent="1gG3ntM72JU_8PpS5YJa-144">
          <mxGeometry x="35" y="60" width="10" height="200" as="geometry" />
        </mxCell>
        <mxCell id="1gG3ntM72JU_8PpS5YJa-146" value="Listener" style="shape=umlLifeline;perimeter=lifelinePerimeter;container=1;collapsible=0;recursiveResize=0;shadow=0;strokeWidth=1;" vertex="1" parent="1">
          <mxGeometry x="422" y="655" width="80" height="280" as="geometry" />
        </mxCell>
        <mxCell id="1gG3ntM72JU_8PpS5YJa-147" value="" style="points=[];perimeter=orthogonalPerimeter;shadow=0;strokeWidth=1;" vertex="1" parent="1gG3ntM72JU_8PpS5YJa-146">
          <mxGeometry x="35" y="60" width="10" height="200" as="geometry" />
        </mxCell>
        <mxCell id="1gG3ntM72JU_8PpS5YJa-148" value="Sender" style="shape=umlLifeline;perimeter=lifelinePerimeter;container=1;collapsible=0;recursiveResize=0;shadow=0;strokeWidth=1;" vertex="1" parent="1">
          <mxGeometry x="542" y="655" width="80" height="280" as="geometry" />
        </mxCell>
        <mxCell id="1gG3ntM72JU_8PpS5YJa-149" value="" style="points=[];perimeter=orthogonalPerimeter;shadow=0;strokeWidth=1;" vertex="1" parent="1gG3ntM72JU_8PpS5YJa-148">
          <mxGeometry x="35" y="60" width="10" height="200" as="geometry" />
        </mxCell>
        <mxCell id="1gG3ntM72JU_8PpS5YJa-150" value="Listener" style="shape=umlLifeline;perimeter=lifelinePerimeter;container=1;collapsible=0;recursiveResize=0;shadow=0;strokeWidth=1;" vertex="1" parent="1">
          <mxGeometry x="702" y="655" width="80" height="280" as="geometry" />
        </mxCell>
        <mxCell id="1gG3ntM72JU_8PpS5YJa-151" value="" style="points=[];perimeter=orthogonalPerimeter;shadow=0;strokeWidth=1;" vertex="1" parent="1gG3ntM72JU_8PpS5YJa-150">
          <mxGeometry x="35" y="60" width="10" height="200" as="geometry" />
        </mxCell>
        <mxCell id="1gG3ntM72JU_8PpS5YJa-152" value="Sender" style="shape=umlLifeline;perimeter=lifelinePerimeter;container=1;collapsible=0;recursiveResize=0;shadow=0;strokeWidth=1;" vertex="1" parent="1">
          <mxGeometry x="822" y="655" width="80" height="280" as="geometry" />
        </mxCell>
        <mxCell id="1gG3ntM72JU_8PpS5YJa-153" value="" style="points=[];perimeter=orthogonalPerimeter;shadow=0;strokeWidth=1;" vertex="1" parent="1gG3ntM72JU_8PpS5YJa-152">
          <mxGeometry x="35" y="60" width="10" height="200" as="geometry" />
        </mxCell>
        <mxCell id="1gG3ntM72JU_8PpS5YJa-154" value="Serializer" style="shape=umlLifeline;perimeter=lifelinePerimeter;container=1;collapsible=0;recursiveResize=0;shadow=0;strokeWidth=1;" vertex="1" parent="1">
          <mxGeometry x="942" y="655" width="80" height="280" as="geometry" />
        </mxCell>
        <mxCell id="1gG3ntM72JU_8PpS5YJa-155" value="" style="points=[];perimeter=orthogonalPerimeter;shadow=0;strokeWidth=1;" vertex="1" parent="1gG3ntM72JU_8PpS5YJa-154">
          <mxGeometry x="35" y="60" width="10" height="200" as="geometry" />
        </mxCell>
        <mxCell id="1gG3ntM72JU_8PpS5YJa-156" value="ServerNet&#xa;Interface" style="shape=umlLifeline;perimeter=lifelinePerimeter;container=1;collapsible=0;recursiveResize=0;shadow=0;strokeWidth=1;labelBackgroundColor=#ffffff;" vertex="1" parent="1">
          <mxGeometry x="1062" y="655" width="80" height="280" as="geometry" />
        </mxCell>
        <mxCell id="1gG3ntM72JU_8PpS5YJa-157" value="" style="points=[];perimeter=orthogonalPerimeter;shadow=0;strokeWidth=1;labelBackgroundColor=#ffffff;labelBorderColor=none;rounded=0;glass=0;fillColor=#FFFFFF;" vertex="1" parent="1gG3ntM72JU_8PpS5YJa-156">
          <mxGeometry x="35" y="60" width="10" height="200" as="geometry" />
        </mxCell>
        <mxCell id="1gG3ntM72JU_8PpS5YJa-158" value="Game" style="shape=umlLifeline;perimeter=lifelinePerimeter;container=1;collapsible=0;recursiveResize=0;shadow=0;strokeWidth=1;" vertex="1" parent="1">
          <mxGeometry x="1182" y="655" width="80" height="280" as="geometry" />
        </mxCell>
        <mxCell id="1gG3ntM72JU_8PpS5YJa-159" value="" style="points=[];perimeter=orthogonalPerimeter;shadow=0;strokeWidth=1;" vertex="1" parent="1gG3ntM72JU_8PpS5YJa-158">
          <mxGeometry x="35" y="60" width="10" height="200" as="geometry" />
        </mxCell>
        <mxCell id="1gG3ntM72JU_8PpS5YJa-176" value="API: Java Socket" style="verticalAlign=middle;endArrow=block;shadow=0;strokeWidth=1;labelBorderColor=#CCCCCC;fontSize=9;" edge="1" parent="1">
          <mxGeometry relative="1" as="geometry">
            <mxPoint x="736" y="865" as="sourcePoint" />
            <mxPoint x="467" y="865" as="targetPoint" />
            <Array as="points">
              <mxPoint x="655" y="865" />
            </Array>
          </mxGeometry>
        </mxCell>
        <mxCell id="1gG3ntM72JU_8PpS5YJa-177" value="return" style="verticalAlign=middle;endArrow=open;dashed=1;endSize=8;shadow=0;strokeWidth=1;sketch=0;align=center;labelBorderColor=#CCCCCC;fontSize=9;exitX=1.168;exitY=0.804;exitDx=0;exitDy=0;exitPerimeter=0;entryX=-0.111;entryY=0.789;entryDx=0;entryDy=0;entryPerimeter=0;" edge="1" parent="1" source="1gG3ntM72JU_8PpS5YJa-147">
          <mxGeometry x="0.0004" relative="1" as="geometry">
            <mxPoint x="735.8899999999999" y="876.58" as="targetPoint" />
            <mxPoint x="588.11" y="875.7" as="sourcePoint" />
            <Array as="points">
              <mxPoint x="657" y="876" />
            </Array>
            <mxPoint as="offset" />
          </mxGeometry>
        </mxCell>
        <mxCell id="1gG3ntM72JU_8PpS5YJa-186" value="joinMatch(playerID, &#xa;gameMode)" style="verticalAlign=middle;endArrow=block;shadow=0;strokeWidth=1;labelBorderColor=#CCCCCC;fontSize=9;" edge="1" parent="1">
          <mxGeometry x="-0.0393" relative="1" as="geometry">
            <mxPoint x="107" y="725" as="sourcePoint" />
            <mxPoint x="217" y="725" as="targetPoint" />
            <Array as="points">
              <mxPoint x="162" y="725" />
            </Array>
            <mxPoint as="offset" />
          </mxGeometry>
        </mxCell>
        <mxCell id="1gG3ntM72JU_8PpS5YJa-187" value="Serialize(ClientMessage&#xa;JoinGame)" style="verticalAlign=middle;endArrow=block;shadow=0;strokeWidth=1;labelBorderColor=#CCCCCC;fontSize=9;" edge="1" parent="1">
          <mxGeometry x="-0.0393" relative="1" as="geometry">
            <mxPoint x="227" y="735" as="sourcePoint" />
            <mxPoint x="337" y="735" as="targetPoint" />
            <Array as="points">
              <mxPoint x="282" y="735" />
            </Array>
            <mxPoint as="offset" />
          </mxGeometry>
        </mxCell>
        <mxCell id="1gG3ntM72JU_8PpS5YJa-188" value="return rawMessage" style="verticalAlign=middle;endArrow=open;dashed=1;endSize=8;shadow=0;strokeWidth=1;sketch=0;align=center;labelBorderColor=#CCCCCC;fontSize=9;" edge="1" parent="1">
          <mxGeometry x="0.0004" relative="1" as="geometry">
            <mxPoint x="227" y="755" as="targetPoint" />
            <mxPoint x="337.0000000000001" y="755" as="sourcePoint" />
            <Array as="points">
              <mxPoint x="312" y="755" />
            </Array>
            <mxPoint as="offset" />
          </mxGeometry>
        </mxCell>
        <mxCell id="1gG3ntM72JU_8PpS5YJa-189" value="send(rawMessage)" style="verticalAlign=middle;endArrow=block;shadow=0;strokeWidth=1;labelBorderColor=#CCCCCC;fontSize=9;entryX=0.048;entryY=0.243;entryDx=0;entryDy=0;entryPerimeter=0;" edge="1" parent="1">
          <mxGeometry relative="1" as="geometry">
            <mxPoint x="227" y="766.4" as="sourcePoint" />
            <mxPoint x="577.48" y="764.9999999999999" as="targetPoint" />
            <Array as="points">
              <mxPoint x="275.5" y="766.4" />
            </Array>
          </mxGeometry>
        </mxCell>
        <mxCell id="1gG3ntM72JU_8PpS5YJa-191" value="return" style="verticalAlign=middle;endArrow=open;dashed=1;endSize=8;shadow=0;strokeWidth=1;sketch=0;align=center;labelBorderColor=#CCCCCC;fontSize=9;exitX=0.053;exitY=0.2;exitDx=0;exitDy=0;exitPerimeter=0;entryX=1.04;entryY=0.349;entryDx=0;entryDy=0;entryPerimeter=0;" edge="1" parent="1">
          <mxGeometry x="0.0004" relative="1" as="geometry">
            <mxPoint x="587.3999999999996" y="784.4000000000001" as="targetPoint" />
            <mxPoint x="737.48" y="784.5999999999999" as="sourcePoint" />
            <Array as="points">
              <mxPoint x="656.9" y="784.6" />
            </Array>
            <mxPoint as="offset" />
          </mxGeometry>
        </mxCell>
        <mxCell id="1gG3ntM72JU_8PpS5YJa-192" value="return" style="verticalAlign=middle;endArrow=open;dashed=1;endSize=8;shadow=0;strokeWidth=1;sketch=0;align=center;labelBorderColor=#CCCCCC;fontSize=9;" edge="1" parent="1">
          <mxGeometry x="0.0004" relative="1" as="geometry">
            <mxPoint x="1097" y="785" as="targetPoint" />
            <mxPoint x="747" y="785" as="sourcePoint" />
            <Array as="points">
              <mxPoint x="802" y="785" />
            </Array>
            <mxPoint as="offset" />
          </mxGeometry>
        </mxCell>
        <mxCell id="1gG3ntM72JU_8PpS5YJa-193" value="Deserialize(rawMessage)" style="verticalAlign=middle;endArrow=block;shadow=0;strokeWidth=1;labelBorderColor=#CCCCCC;fontSize=9;exitX=-0.162;exitY=0.154;exitDx=0;exitDy=0;exitPerimeter=0;entryX=0.879;entryY=0.15;entryDx=0;entryDy=0;entryPerimeter=0;" edge="1" parent="1">
          <mxGeometry relative="1" as="geometry">
            <mxPoint x="1098.8100000000002" y="795.8" as="sourcePoint" />
            <mxPoint x="987.22" y="795" as="targetPoint" />
            <Array as="points" />
          </mxGeometry>
        </mxCell>
        <mxCell id="1gG3ntM72JU_8PpS5YJa-194" value="return message" style="verticalAlign=middle;endArrow=open;dashed=1;endSize=8;shadow=0;strokeWidth=1;sketch=0;align=center;labelBorderColor=#CCCCCC;fontSize=9;exitX=0.978;exitY=0.901;exitDx=0;exitDy=0;exitPerimeter=0;" edge="1" parent="1">
          <mxGeometry x="0.0004" relative="1" as="geometry">
            <mxPoint x="1097.22" y="806" as="targetPoint" />
            <mxPoint x="987" y="806.1999999999998" as="sourcePoint" />
            <Array as="points">
              <mxPoint x="1022.22" y="806" />
            </Array>
            <mxPoint as="offset" />
          </mxGeometry>
        </mxCell>
        <mxCell id="1gG3ntM72JU_8PpS5YJa-195" value="joinGame(Player)" style="verticalAlign=middle;endArrow=block;shadow=0;strokeWidth=1;labelBorderColor=#CCCCCC;fontSize=9;" edge="1" parent="1">
          <mxGeometry x="-0.0393" relative="1" as="geometry">
            <mxPoint x="1107" y="815" as="sourcePoint" />
            <mxPoint x="1217" y="815" as="targetPoint" />
            <Array as="points">
              <mxPoint x="1162" y="815" />
            </Array>
            <mxPoint as="offset" />
          </mxGeometry>
        </mxCell>
        <mxCell id="1gG3ntM72JU_8PpS5YJa-196" value="send(&#xa;ServerMessageOK)" style="verticalAlign=middle;endArrow=block;shadow=0;strokeWidth=1;labelBorderColor=#CCCCCC;fontSize=9;exitX=-0.112;exitY=0.628;exitDx=0;exitDy=0;exitPerimeter=0;entryX=0.879;entryY=0.15;entryDx=0;entryDy=0;entryPerimeter=0;" edge="1" parent="1" source="1gG3ntM72JU_8PpS5YJa-159">
          <mxGeometry x="0.0143" relative="1" as="geometry">
            <mxPoint x="1218.5900000000001" y="840.8" as="sourcePoint" />
            <mxPoint x="1107" y="840" as="targetPoint" />
            <Array as="points" />
            <mxPoint as="offset" />
          </mxGeometry>
        </mxCell>
        <mxCell id="1gG3ntM72JU_8PpS5YJa-197" value="Constructor(serverPort) " style="verticalAlign=middle;endArrow=block;shadow=0;strokeWidth=1;labelBorderColor=#CCCCCC;fontSize=9;" edge="1" parent="1">
          <mxGeometry relative="1" as="geometry">
            <mxPoint x="1097" y="854.9999999999999" as="sourcePoint" />
            <mxPoint x="746.9999999999998" y="854.9999999999999" as="targetPoint" />
            <Array as="points" />
          </mxGeometry>
        </mxCell>
        <mxCell id="1gG3ntM72JU_8PpS5YJa-200" value="receive(message)" style="verticalAlign=middle;endArrow=block;shadow=0;strokeWidth=1;labelBorderColor=#CCCCCC;fontSize=9;entryX=0.879;entryY=0.15;entryDx=0;entryDy=0;entryPerimeter=0;exitX=0.048;exitY=0.854;exitDx=0;exitDy=0;exitPerimeter=0;" edge="1" parent="1" source="1gG3ntM72JU_8PpS5YJa-147">
          <mxGeometry x="0.0143" relative="1" as="geometry">
            <mxPoint x="427" y="885" as="sourcePoint" />
            <mxPoint x="227" y="885" as="targetPoint" />
            <Array as="points" />
            <mxPoint as="offset" />
          </mxGeometry>
        </mxCell>
        <mxCell id="1gG3ntM72JU_8PpS5YJa-203" value="API: Java Socket" style="verticalAlign=middle;endArrow=block;shadow=0;strokeWidth=1;labelBorderColor=#CCCCCC;fontSize=9;entryX=-0.014;entryY=0.302;entryDx=0;entryDy=0;entryPerimeter=0;" edge="1" parent="1">
          <mxGeometry relative="1" as="geometry">
            <mxPoint x="587" y="1553.6" as="sourcePoint" />
            <mxPoint x="736.8599999999997" y="1553" as="targetPoint" />
            <Array as="points">
              <mxPoint x="635.5" y="1553.6" />
            </Array>
          </mxGeometry>
        </mxCell>
        <mxCell id="1gG3ntM72JU_8PpS5YJa-204" value="Client" style="shape=umlLifeline;perimeter=lifelinePerimeter;container=1;collapsible=0;recursiveResize=0;shadow=0;strokeWidth=1;" vertex="1" parent="1">
          <mxGeometry x="62" y="1434" width="80" height="280" as="geometry" />
        </mxCell>
        <mxCell id="1gG3ntM72JU_8PpS5YJa-205" value="" style="points=[];perimeter=orthogonalPerimeter;shadow=0;strokeWidth=1;" vertex="1" parent="1gG3ntM72JU_8PpS5YJa-204">
          <mxGeometry x="35" y="60" width="10" height="200" as="geometry" />
        </mxCell>
        <mxCell id="1gG3ntM72JU_8PpS5YJa-206" value="&lt;span style=&quot;font-size: 18px&quot;&gt;2. Play a LeaderCard&lt;/span&gt;" style="text;html=1;strokeColor=none;fillColor=none;align=left;verticalAlign=middle;whiteSpace=wrap;" vertex="1" parent="1">
          <mxGeometry x="62" y="1394" width="1020" height="20" as="geometry" />
        </mxCell>
        <mxCell id="1gG3ntM72JU_8PpS5YJa-207" value="ClientNet&#xa;Interface" style="shape=umlLifeline;perimeter=lifelinePerimeter;container=1;collapsible=0;recursiveResize=0;shadow=0;strokeWidth=1;" vertex="1" parent="1">
          <mxGeometry x="182" y="1434" width="80" height="280" as="geometry" />
        </mxCell>
        <mxCell id="1gG3ntM72JU_8PpS5YJa-208" value="" style="points=[];perimeter=orthogonalPerimeter;shadow=0;strokeWidth=1;" vertex="1" parent="1gG3ntM72JU_8PpS5YJa-207">
          <mxGeometry x="35" y="60" width="10" height="200" as="geometry" />
        </mxCell>
        <mxCell id="1gG3ntM72JU_8PpS5YJa-209" value="Serializer" style="shape=umlLifeline;perimeter=lifelinePerimeter;container=1;collapsible=0;recursiveResize=0;shadow=0;strokeWidth=1;" vertex="1" parent="1">
          <mxGeometry x="302" y="1434" width="80" height="280" as="geometry" />
        </mxCell>
        <mxCell id="1gG3ntM72JU_8PpS5YJa-210" value="" style="points=[];perimeter=orthogonalPerimeter;shadow=0;strokeWidth=1;" vertex="1" parent="1gG3ntM72JU_8PpS5YJa-209">
          <mxGeometry x="35" y="60" width="10" height="200" as="geometry" />
        </mxCell>
        <mxCell id="1gG3ntM72JU_8PpS5YJa-211" value="Listener" style="shape=umlLifeline;perimeter=lifelinePerimeter;container=1;collapsible=0;recursiveResize=0;shadow=0;strokeWidth=1;" vertex="1" parent="1">
          <mxGeometry x="422" y="1434" width="80" height="280" as="geometry" />
        </mxCell>
        <mxCell id="1gG3ntM72JU_8PpS5YJa-212" value="" style="points=[];perimeter=orthogonalPerimeter;shadow=0;strokeWidth=1;" vertex="1" parent="1gG3ntM72JU_8PpS5YJa-211">
          <mxGeometry x="35" y="60" width="10" height="200" as="geometry" />
        </mxCell>
        <mxCell id="1gG3ntM72JU_8PpS5YJa-213" value="Sender" style="shape=umlLifeline;perimeter=lifelinePerimeter;container=1;collapsible=0;recursiveResize=0;shadow=0;strokeWidth=1;" vertex="1" parent="1">
          <mxGeometry x="542" y="1434" width="80" height="280" as="geometry" />
        </mxCell>
        <mxCell id="1gG3ntM72JU_8PpS5YJa-214" value="" style="points=[];perimeter=orthogonalPerimeter;shadow=0;strokeWidth=1;" vertex="1" parent="1gG3ntM72JU_8PpS5YJa-213">
          <mxGeometry x="35" y="60" width="10" height="200" as="geometry" />
        </mxCell>
        <mxCell id="1gG3ntM72JU_8PpS5YJa-215" value="Listener" style="shape=umlLifeline;perimeter=lifelinePerimeter;container=1;collapsible=0;recursiveResize=0;shadow=0;strokeWidth=1;" vertex="1" parent="1">
          <mxGeometry x="702" y="1434" width="80" height="280" as="geometry" />
        </mxCell>
        <mxCell id="1gG3ntM72JU_8PpS5YJa-216" value="" style="points=[];perimeter=orthogonalPerimeter;shadow=0;strokeWidth=1;" vertex="1" parent="1gG3ntM72JU_8PpS5YJa-215">
          <mxGeometry x="35" y="60" width="10" height="200" as="geometry" />
        </mxCell>
        <mxCell id="1gG3ntM72JU_8PpS5YJa-217" value="Sender" style="shape=umlLifeline;perimeter=lifelinePerimeter;container=1;collapsible=0;recursiveResize=0;shadow=0;strokeWidth=1;" vertex="1" parent="1">
          <mxGeometry x="822" y="1434" width="80" height="280" as="geometry" />
        </mxCell>
        <mxCell id="1gG3ntM72JU_8PpS5YJa-218" value="" style="points=[];perimeter=orthogonalPerimeter;shadow=0;strokeWidth=1;" vertex="1" parent="1gG3ntM72JU_8PpS5YJa-217">
          <mxGeometry x="35" y="60" width="10" height="200" as="geometry" />
        </mxCell>
        <mxCell id="1gG3ntM72JU_8PpS5YJa-219" value="Serializer" style="shape=umlLifeline;perimeter=lifelinePerimeter;container=1;collapsible=0;recursiveResize=0;shadow=0;strokeWidth=1;" vertex="1" parent="1">
          <mxGeometry x="942" y="1434" width="80" height="280" as="geometry" />
        </mxCell>
        <mxCell id="1gG3ntM72JU_8PpS5YJa-220" value="" style="points=[];perimeter=orthogonalPerimeter;shadow=0;strokeWidth=1;" vertex="1" parent="1gG3ntM72JU_8PpS5YJa-219">
          <mxGeometry x="35" y="60" width="10" height="200" as="geometry" />
        </mxCell>
        <mxCell id="1gG3ntM72JU_8PpS5YJa-221" value="ServerNet&#xa;Interface" style="shape=umlLifeline;perimeter=lifelinePerimeter;container=1;collapsible=0;recursiveResize=0;shadow=0;strokeWidth=1;labelBackgroundColor=#ffffff;" vertex="1" parent="1">
          <mxGeometry x="1062" y="1434" width="80" height="280" as="geometry" />
        </mxCell>
        <mxCell id="1gG3ntM72JU_8PpS5YJa-222" value="" style="points=[];perimeter=orthogonalPerimeter;shadow=0;strokeWidth=1;labelBackgroundColor=#ffffff;labelBorderColor=none;rounded=0;glass=0;fillColor=#FFFFFF;" vertex="1" parent="1gG3ntM72JU_8PpS5YJa-221">
          <mxGeometry x="35" y="60" width="10" height="200" as="geometry" />
        </mxCell>
        <mxCell id="1gG3ntM72JU_8PpS5YJa-223" value="Game" style="shape=umlLifeline;perimeter=lifelinePerimeter;container=1;collapsible=0;recursiveResize=0;shadow=0;strokeWidth=1;" vertex="1" parent="1">
          <mxGeometry x="1182" y="1434" width="80" height="280" as="geometry" />
        </mxCell>
        <mxCell id="1gG3ntM72JU_8PpS5YJa-224" value="" style="points=[];perimeter=orthogonalPerimeter;shadow=0;strokeWidth=1;" vertex="1" parent="1gG3ntM72JU_8PpS5YJa-223">
          <mxGeometry x="35" y="60" width="10" height="200" as="geometry" />
        </mxCell>
        <mxCell id="1gG3ntM72JU_8PpS5YJa-225" value="API: Java Socket" style="verticalAlign=middle;endArrow=block;shadow=0;strokeWidth=1;labelBorderColor=#CCCCCC;fontSize=9;" edge="1" parent="1">
          <mxGeometry relative="1" as="geometry">
            <mxPoint x="736" y="1644" as="sourcePoint" />
            <mxPoint x="467" y="1644" as="targetPoint" />
            <Array as="points">
              <mxPoint x="655" y="1644" />
            </Array>
          </mxGeometry>
        </mxCell>
        <mxCell id="1gG3ntM72JU_8PpS5YJa-226" value="return" style="verticalAlign=middle;endArrow=open;dashed=1;endSize=8;shadow=0;strokeWidth=1;sketch=0;align=center;labelBorderColor=#CCCCCC;fontSize=9;exitX=1.168;exitY=0.804;exitDx=0;exitDy=0;exitPerimeter=0;entryX=-0.111;entryY=0.789;entryDx=0;entryDy=0;entryPerimeter=0;" edge="1" parent="1" source="1gG3ntM72JU_8PpS5YJa-212">
          <mxGeometry x="0.0004" relative="1" as="geometry">
            <mxPoint x="735.8899999999999" y="1655.58" as="targetPoint" />
            <mxPoint x="588.11" y="1654.7" as="sourcePoint" />
            <Array as="points">
              <mxPoint x="657" y="1655" />
            </Array>
            <mxPoint as="offset" />
          </mxGeometry>
        </mxCell>
        <mxCell id="1gG3ntM72JU_8PpS5YJa-227" value="send(ClientMessage&#xa;LeaderActivation)" style="verticalAlign=middle;endArrow=block;shadow=0;strokeWidth=1;labelBorderColor=#CCCCCC;fontSize=9;" edge="1" parent="1">
          <mxGeometry x="-0.0393" relative="1" as="geometry">
            <mxPoint x="107" y="1504" as="sourcePoint" />
            <mxPoint x="217" y="1504" as="targetPoint" />
            <Array as="points">
              <mxPoint x="162" y="1504" />
            </Array>
            <mxPoint as="offset" />
          </mxGeometry>
        </mxCell>
        <mxCell id="1gG3ntM72JU_8PpS5YJa-228" value="Serialize(ClientMessage&#xa;LeaderActivation)" style="verticalAlign=middle;endArrow=block;shadow=0;strokeWidth=1;labelBorderColor=#CCCCCC;fontSize=9;" edge="1" parent="1">
          <mxGeometry x="-0.0393" relative="1" as="geometry">
            <mxPoint x="227" y="1514" as="sourcePoint" />
            <mxPoint x="337" y="1514" as="targetPoint" />
            <Array as="points">
              <mxPoint x="282" y="1514" />
            </Array>
            <mxPoint as="offset" />
          </mxGeometry>
        </mxCell>
        <mxCell id="1gG3ntM72JU_8PpS5YJa-229" value="return rawMessage" style="verticalAlign=middle;endArrow=open;dashed=1;endSize=8;shadow=0;strokeWidth=1;sketch=0;align=center;labelBorderColor=#CCCCCC;fontSize=9;" edge="1" parent="1">
          <mxGeometry x="0.0004" relative="1" as="geometry">
            <mxPoint x="227" y="1534" as="targetPoint" />
            <mxPoint x="337" y="1534" as="sourcePoint" />
            <Array as="points">
              <mxPoint x="312" y="1534" />
            </Array>
            <mxPoint as="offset" />
          </mxGeometry>
        </mxCell>
        <mxCell id="1gG3ntM72JU_8PpS5YJa-230" value="send(rawMessage)" style="verticalAlign=middle;endArrow=block;shadow=0;strokeWidth=1;labelBorderColor=#CCCCCC;fontSize=9;entryX=0.048;entryY=0.243;entryDx=0;entryDy=0;entryPerimeter=0;" edge="1" parent="1">
          <mxGeometry relative="1" as="geometry">
            <mxPoint x="227" y="1545.4" as="sourcePoint" />
            <mxPoint x="577.48" y="1544" as="targetPoint" />
            <Array as="points">
              <mxPoint x="275.5" y="1545.4" />
            </Array>
          </mxGeometry>
        </mxCell>
        <mxCell id="1gG3ntM72JU_8PpS5YJa-231" value="return" style="verticalAlign=middle;endArrow=open;dashed=1;endSize=8;shadow=0;strokeWidth=1;sketch=0;align=center;labelBorderColor=#CCCCCC;fontSize=9;exitX=0.053;exitY=0.2;exitDx=0;exitDy=0;exitPerimeter=0;entryX=1.04;entryY=0.349;entryDx=0;entryDy=0;entryPerimeter=0;" edge="1" parent="1">
          <mxGeometry x="0.0004" relative="1" as="geometry">
            <mxPoint x="587.3999999999996" y="1563.4" as="targetPoint" />
            <mxPoint x="737.48" y="1563.6" as="sourcePoint" />
            <Array as="points">
              <mxPoint x="656.9" y="1563.6" />
            </Array>
            <mxPoint as="offset" />
          </mxGeometry>
        </mxCell>
        <mxCell id="1gG3ntM72JU_8PpS5YJa-232" value="return" style="verticalAlign=middle;endArrow=open;dashed=1;endSize=8;shadow=0;strokeWidth=1;sketch=0;align=center;labelBorderColor=#CCCCCC;fontSize=9;" edge="1" parent="1">
          <mxGeometry x="0.0004" relative="1" as="geometry">
            <mxPoint x="1097" y="1564" as="targetPoint" />
            <mxPoint x="747" y="1564" as="sourcePoint" />
            <Array as="points">
              <mxPoint x="802" y="1564" />
            </Array>
            <mxPoint as="offset" />
          </mxGeometry>
        </mxCell>
        <mxCell id="1gG3ntM72JU_8PpS5YJa-233" value="Deserialize(rawMessage)" style="verticalAlign=middle;endArrow=block;shadow=0;strokeWidth=1;labelBorderColor=#CCCCCC;fontSize=9;exitX=-0.162;exitY=0.154;exitDx=0;exitDy=0;exitPerimeter=0;entryX=0.879;entryY=0.15;entryDx=0;entryDy=0;entryPerimeter=0;" edge="1" parent="1">
          <mxGeometry relative="1" as="geometry">
            <mxPoint x="1098.8100000000004" y="1574.8" as="sourcePoint" />
            <mxPoint x="987.2200000000003" y="1574" as="targetPoint" />
            <Array as="points" />
          </mxGeometry>
        </mxCell>
        <mxCell id="1gG3ntM72JU_8PpS5YJa-234" value="return message" style="verticalAlign=middle;endArrow=open;dashed=1;endSize=8;shadow=0;strokeWidth=1;sketch=0;align=center;labelBorderColor=#CCCCCC;fontSize=9;exitX=0.978;exitY=0.901;exitDx=0;exitDy=0;exitPerimeter=0;" edge="1" parent="1">
          <mxGeometry x="0.0004" relative="1" as="geometry">
            <mxPoint x="1097.2200000000003" y="1585" as="targetPoint" />
            <mxPoint x="987" y="1585.1999999999998" as="sourcePoint" />
            <Array as="points">
              <mxPoint x="1022.22" y="1585" />
            </Array>
            <mxPoint as="offset" />
          </mxGeometry>
        </mxCell>
        <mxCell id="1gG3ntM72JU_8PpS5YJa-235" value="activateLeader(&#xa;LeaderCard)" style="verticalAlign=middle;endArrow=block;shadow=0;strokeWidth=1;labelBorderColor=#CCCCCC;fontSize=9;" edge="1" parent="1">
          <mxGeometry x="-0.0393" relative="1" as="geometry">
            <mxPoint x="1107" y="1594" as="sourcePoint" />
            <mxPoint x="1217" y="1594" as="targetPoint" />
            <Array as="points">
              <mxPoint x="1162" y="1594" />
            </Array>
            <mxPoint as="offset" />
          </mxGeometry>
        </mxCell>
        <mxCell id="1gG3ntM72JU_8PpS5YJa-236" value="send(&#xa;message*)" style="verticalAlign=middle;endArrow=block;shadow=0;strokeWidth=1;labelBorderColor=#CCCCCC;fontSize=9;exitX=-0.112;exitY=0.628;exitDx=0;exitDy=0;exitPerimeter=0;entryX=0.879;entryY=0.15;entryDx=0;entryDy=0;entryPerimeter=0;" edge="1" parent="1" source="1gG3ntM72JU_8PpS5YJa-224">
          <mxGeometry x="0.0143" relative="1" as="geometry">
            <mxPoint x="1218.5900000000001" y="1619.8" as="sourcePoint" />
            <mxPoint x="1107" y="1619" as="targetPoint" />
            <Array as="points">
              <mxPoint x="1162" y="1619" />
            </Array>
            <mxPoint as="offset" />
          </mxGeometry>
        </mxCell>
        <mxCell id="1gG3ntM72JU_8PpS5YJa-237" value="Constructor(serverPort) " style="verticalAlign=middle;endArrow=block;shadow=0;strokeWidth=1;labelBorderColor=#CCCCCC;fontSize=9;" edge="1" parent="1">
          <mxGeometry relative="1" as="geometry">
            <mxPoint x="1097" y="1634" as="sourcePoint" />
            <mxPoint x="747" y="1634" as="targetPoint" />
            <Array as="points" />
          </mxGeometry>
        </mxCell>
        <mxCell id="1gG3ntM72JU_8PpS5YJa-238" value="receive(message)" style="verticalAlign=middle;endArrow=block;shadow=0;strokeWidth=1;labelBorderColor=#CCCCCC;fontSize=9;entryX=0.879;entryY=0.15;entryDx=0;entryDy=0;entryPerimeter=0;exitX=0.048;exitY=0.854;exitDx=0;exitDy=0;exitPerimeter=0;" edge="1" parent="1" source="1gG3ntM72JU_8PpS5YJa-212">
          <mxGeometry x="0.0143" relative="1" as="geometry">
            <mxPoint x="427" y="1664" as="sourcePoint" />
            <mxPoint x="227" y="1664" as="targetPoint" />
            <Array as="points" />
            <mxPoint as="offset" />
          </mxGeometry>
        </mxCell>
        <mxCell id="1gG3ntM72JU_8PpS5YJa-239" value="API: Java Socket" style="verticalAlign=middle;endArrow=block;shadow=0;strokeWidth=1;labelBorderColor=#CCCCCC;fontSize=9;entryX=-0.014;entryY=0.302;entryDx=0;entryDy=0;entryPerimeter=0;" edge="1" parent="1">
          <mxGeometry relative="1" as="geometry">
            <mxPoint x="587" y="1953.6" as="sourcePoint" />
            <mxPoint x="736.8599999999997" y="1953" as="targetPoint" />
            <Array as="points">
              <mxPoint x="635.5" y="1953.6" />
            </Array>
          </mxGeometry>
        </mxCell>
        <mxCell id="1gG3ntM72JU_8PpS5YJa-240" value="Client" style="shape=umlLifeline;perimeter=lifelinePerimeter;container=1;collapsible=0;recursiveResize=0;shadow=0;strokeWidth=1;" vertex="1" parent="1">
          <mxGeometry x="62" y="1834" width="80" height="280" as="geometry" />
        </mxCell>
        <mxCell id="1gG3ntM72JU_8PpS5YJa-241" value="" style="points=[];perimeter=orthogonalPerimeter;shadow=0;strokeWidth=1;" vertex="1" parent="1gG3ntM72JU_8PpS5YJa-240">
          <mxGeometry x="35" y="60" width="10" height="200" as="geometry" />
        </mxCell>
        <mxCell id="1gG3ntM72JU_8PpS5YJa-242" value="&lt;span style=&quot;font-size: 18px&quot;&gt;3. Take Resources&lt;/span&gt;" style="text;html=1;strokeColor=none;fillColor=none;align=left;verticalAlign=middle;whiteSpace=wrap;" vertex="1" parent="1">
          <mxGeometry x="62" y="1794" width="1020" height="20" as="geometry" />
        </mxCell>
        <mxCell id="1gG3ntM72JU_8PpS5YJa-243" value="ClientNet&#xa;Interface" style="shape=umlLifeline;perimeter=lifelinePerimeter;container=1;collapsible=0;recursiveResize=0;shadow=0;strokeWidth=1;" vertex="1" parent="1">
          <mxGeometry x="182" y="1834" width="80" height="280" as="geometry" />
        </mxCell>
        <mxCell id="1gG3ntM72JU_8PpS5YJa-244" value="" style="points=[];perimeter=orthogonalPerimeter;shadow=0;strokeWidth=1;" vertex="1" parent="1gG3ntM72JU_8PpS5YJa-243">
          <mxGeometry x="35" y="60" width="10" height="200" as="geometry" />
        </mxCell>
        <mxCell id="1gG3ntM72JU_8PpS5YJa-245" value="Serializer" style="shape=umlLifeline;perimeter=lifelinePerimeter;container=1;collapsible=0;recursiveResize=0;shadow=0;strokeWidth=1;" vertex="1" parent="1">
          <mxGeometry x="302" y="1834" width="80" height="280" as="geometry" />
        </mxCell>
        <mxCell id="1gG3ntM72JU_8PpS5YJa-246" value="" style="points=[];perimeter=orthogonalPerimeter;shadow=0;strokeWidth=1;" vertex="1" parent="1gG3ntM72JU_8PpS5YJa-245">
          <mxGeometry x="35" y="60" width="10" height="200" as="geometry" />
        </mxCell>
        <mxCell id="1gG3ntM72JU_8PpS5YJa-247" value="Listener" style="shape=umlLifeline;perimeter=lifelinePerimeter;container=1;collapsible=0;recursiveResize=0;shadow=0;strokeWidth=1;" vertex="1" parent="1">
          <mxGeometry x="422" y="1834" width="80" height="280" as="geometry" />
        </mxCell>
        <mxCell id="1gG3ntM72JU_8PpS5YJa-248" value="" style="points=[];perimeter=orthogonalPerimeter;shadow=0;strokeWidth=1;" vertex="1" parent="1gG3ntM72JU_8PpS5YJa-247">
          <mxGeometry x="35" y="60" width="10" height="200" as="geometry" />
        </mxCell>
        <mxCell id="1gG3ntM72JU_8PpS5YJa-249" value="Sender" style="shape=umlLifeline;perimeter=lifelinePerimeter;container=1;collapsible=0;recursiveResize=0;shadow=0;strokeWidth=1;" vertex="1" parent="1">
          <mxGeometry x="542" y="1834" width="80" height="280" as="geometry" />
        </mxCell>
        <mxCell id="1gG3ntM72JU_8PpS5YJa-250" value="" style="points=[];perimeter=orthogonalPerimeter;shadow=0;strokeWidth=1;" vertex="1" parent="1gG3ntM72JU_8PpS5YJa-249">
          <mxGeometry x="35" y="60" width="10" height="200" as="geometry" />
        </mxCell>
        <mxCell id="1gG3ntM72JU_8PpS5YJa-251" value="Listener" style="shape=umlLifeline;perimeter=lifelinePerimeter;container=1;collapsible=0;recursiveResize=0;shadow=0;strokeWidth=1;" vertex="1" parent="1">
          <mxGeometry x="702" y="1834" width="80" height="280" as="geometry" />
        </mxCell>
        <mxCell id="1gG3ntM72JU_8PpS5YJa-252" value="" style="points=[];perimeter=orthogonalPerimeter;shadow=0;strokeWidth=1;" vertex="1" parent="1gG3ntM72JU_8PpS5YJa-251">
          <mxGeometry x="35" y="60" width="10" height="200" as="geometry" />
        </mxCell>
        <mxCell id="1gG3ntM72JU_8PpS5YJa-253" value="Sender" style="shape=umlLifeline;perimeter=lifelinePerimeter;container=1;collapsible=0;recursiveResize=0;shadow=0;strokeWidth=1;" vertex="1" parent="1">
          <mxGeometry x="822" y="1834" width="80" height="280" as="geometry" />
        </mxCell>
        <mxCell id="1gG3ntM72JU_8PpS5YJa-254" value="" style="points=[];perimeter=orthogonalPerimeter;shadow=0;strokeWidth=1;" vertex="1" parent="1gG3ntM72JU_8PpS5YJa-253">
          <mxGeometry x="35" y="60" width="10" height="200" as="geometry" />
        </mxCell>
        <mxCell id="1gG3ntM72JU_8PpS5YJa-255" value="Serializer" style="shape=umlLifeline;perimeter=lifelinePerimeter;container=1;collapsible=0;recursiveResize=0;shadow=0;strokeWidth=1;" vertex="1" parent="1">
          <mxGeometry x="942" y="1834" width="80" height="280" as="geometry" />
        </mxCell>
        <mxCell id="1gG3ntM72JU_8PpS5YJa-256" value="" style="points=[];perimeter=orthogonalPerimeter;shadow=0;strokeWidth=1;" vertex="1" parent="1gG3ntM72JU_8PpS5YJa-255">
          <mxGeometry x="35" y="60" width="10" height="200" as="geometry" />
        </mxCell>
        <mxCell id="1gG3ntM72JU_8PpS5YJa-257" value="ServerNet&#xa;Interface" style="shape=umlLifeline;perimeter=lifelinePerimeter;container=1;collapsible=0;recursiveResize=0;shadow=0;strokeWidth=1;labelBackgroundColor=#ffffff;" vertex="1" parent="1">
          <mxGeometry x="1062" y="1834" width="80" height="280" as="geometry" />
        </mxCell>
        <mxCell id="1gG3ntM72JU_8PpS5YJa-258" value="" style="points=[];perimeter=orthogonalPerimeter;shadow=0;strokeWidth=1;labelBackgroundColor=#ffffff;labelBorderColor=none;rounded=0;glass=0;fillColor=#FFFFFF;" vertex="1" parent="1gG3ntM72JU_8PpS5YJa-257">
          <mxGeometry x="35" y="60" width="10" height="200" as="geometry" />
        </mxCell>
        <mxCell id="1gG3ntM72JU_8PpS5YJa-259" value="Game" style="shape=umlLifeline;perimeter=lifelinePerimeter;container=1;collapsible=0;recursiveResize=0;shadow=0;strokeWidth=1;" vertex="1" parent="1">
          <mxGeometry x="1182" y="1834" width="80" height="280" as="geometry" />
        </mxCell>
        <mxCell id="1gG3ntM72JU_8PpS5YJa-260" value="" style="points=[];perimeter=orthogonalPerimeter;shadow=0;strokeWidth=1;" vertex="1" parent="1gG3ntM72JU_8PpS5YJa-259">
          <mxGeometry x="35" y="60" width="10" height="200" as="geometry" />
        </mxCell>
        <mxCell id="1gG3ntM72JU_8PpS5YJa-261" value="API: Java Socket" style="verticalAlign=middle;endArrow=block;shadow=0;strokeWidth=1;labelBorderColor=#CCCCCC;fontSize=9;" edge="1" parent="1">
          <mxGeometry relative="1" as="geometry">
            <mxPoint x="736" y="2044" as="sourcePoint" />
            <mxPoint x="467" y="2044" as="targetPoint" />
            <Array as="points">
              <mxPoint x="655" y="2044" />
            </Array>
          </mxGeometry>
        </mxCell>
        <mxCell id="1gG3ntM72JU_8PpS5YJa-262" value="return" style="verticalAlign=middle;endArrow=open;dashed=1;endSize=8;shadow=0;strokeWidth=1;sketch=0;align=center;labelBorderColor=#CCCCCC;fontSize=9;exitX=1.168;exitY=0.804;exitDx=0;exitDy=0;exitPerimeter=0;entryX=-0.111;entryY=0.789;entryDx=0;entryDy=0;entryPerimeter=0;" edge="1" parent="1" source="1gG3ntM72JU_8PpS5YJa-248">
          <mxGeometry x="0.0004" relative="1" as="geometry">
            <mxPoint x="735.8899999999999" y="2055.58" as="targetPoint" />
            <mxPoint x="588.11" y="2054.7" as="sourcePoint" />
            <Array as="points">
              <mxPoint x="657" y="2055" />
            </Array>
            <mxPoint as="offset" />
          </mxGeometry>
        </mxCell>
        <mxCell id="1gG3ntM72JU_8PpS5YJa-263" value="send(ClientMessage&#xa;TakeResources)" style="verticalAlign=middle;endArrow=block;shadow=0;strokeWidth=1;labelBorderColor=#CCCCCC;fontSize=9;" edge="1" parent="1">
          <mxGeometry x="-0.0393" relative="1" as="geometry">
            <mxPoint x="107" y="1904" as="sourcePoint" />
            <mxPoint x="217" y="1904" as="targetPoint" />
            <Array as="points">
              <mxPoint x="162" y="1904" />
            </Array>
            <mxPoint as="offset" />
          </mxGeometry>
        </mxCell>
        <mxCell id="1gG3ntM72JU_8PpS5YJa-264" value="Serialize(ClientMessage&#xa;TakeResources)" style="verticalAlign=middle;endArrow=block;shadow=0;strokeWidth=1;labelBorderColor=#CCCCCC;fontSize=9;" edge="1" parent="1">
          <mxGeometry x="-0.0393" relative="1" as="geometry">
            <mxPoint x="227" y="1914" as="sourcePoint" />
            <mxPoint x="337" y="1914" as="targetPoint" />
            <Array as="points">
              <mxPoint x="282" y="1914" />
            </Array>
            <mxPoint as="offset" />
          </mxGeometry>
        </mxCell>
        <mxCell id="1gG3ntM72JU_8PpS5YJa-265" value="return rawMessage" style="verticalAlign=middle;endArrow=open;dashed=1;endSize=8;shadow=0;strokeWidth=1;sketch=0;align=center;labelBorderColor=#CCCCCC;fontSize=9;" edge="1" parent="1">
          <mxGeometry x="0.0004" relative="1" as="geometry">
            <mxPoint x="227" y="1934" as="targetPoint" />
            <mxPoint x="337" y="1934" as="sourcePoint" />
            <Array as="points">
              <mxPoint x="312" y="1934" />
            </Array>
            <mxPoint as="offset" />
          </mxGeometry>
        </mxCell>
        <mxCell id="1gG3ntM72JU_8PpS5YJa-266" value="send(rawMessage)" style="verticalAlign=middle;endArrow=block;shadow=0;strokeWidth=1;labelBorderColor=#CCCCCC;fontSize=9;entryX=0.048;entryY=0.243;entryDx=0;entryDy=0;entryPerimeter=0;" edge="1" parent="1">
          <mxGeometry relative="1" as="geometry">
            <mxPoint x="227" y="1945.4" as="sourcePoint" />
            <mxPoint x="577.48" y="1944" as="targetPoint" />
            <Array as="points">
              <mxPoint x="275.5" y="1945.4" />
            </Array>
          </mxGeometry>
        </mxCell>
        <mxCell id="1gG3ntM72JU_8PpS5YJa-267" value="return" style="verticalAlign=middle;endArrow=open;dashed=1;endSize=8;shadow=0;strokeWidth=1;sketch=0;align=center;labelBorderColor=#CCCCCC;fontSize=9;exitX=0.053;exitY=0.2;exitDx=0;exitDy=0;exitPerimeter=0;entryX=1.04;entryY=0.349;entryDx=0;entryDy=0;entryPerimeter=0;" edge="1" parent="1">
          <mxGeometry x="0.0004" relative="1" as="geometry">
            <mxPoint x="587.3999999999996" y="1963.4" as="targetPoint" />
            <mxPoint x="737.48" y="1963.6" as="sourcePoint" />
            <Array as="points">
              <mxPoint x="656.9" y="1963.6" />
            </Array>
            <mxPoint as="offset" />
          </mxGeometry>
        </mxCell>
        <mxCell id="1gG3ntM72JU_8PpS5YJa-268" value="return" style="verticalAlign=middle;endArrow=open;dashed=1;endSize=8;shadow=0;strokeWidth=1;sketch=0;align=center;labelBorderColor=#CCCCCC;fontSize=9;" edge="1" parent="1">
          <mxGeometry x="0.0004" relative="1" as="geometry">
            <mxPoint x="1096.9999999999995" y="1964" as="targetPoint" />
            <mxPoint x="747" y="1964" as="sourcePoint" />
            <Array as="points">
              <mxPoint x="802" y="1964" />
            </Array>
            <mxPoint as="offset" />
          </mxGeometry>
        </mxCell>
        <mxCell id="1gG3ntM72JU_8PpS5YJa-269" value="Deserialize(rawMessage)" style="verticalAlign=middle;endArrow=block;shadow=0;strokeWidth=1;labelBorderColor=#CCCCCC;fontSize=9;exitX=-0.162;exitY=0.154;exitDx=0;exitDy=0;exitPerimeter=0;entryX=0.879;entryY=0.15;entryDx=0;entryDy=0;entryPerimeter=0;" edge="1" parent="1">
          <mxGeometry relative="1" as="geometry">
            <mxPoint x="1098.81" y="1974.8000000000002" as="sourcePoint" />
            <mxPoint x="987.2200000000003" y="1974" as="targetPoint" />
            <Array as="points" />
          </mxGeometry>
        </mxCell>
        <mxCell id="1gG3ntM72JU_8PpS5YJa-270" value="return message" style="verticalAlign=middle;endArrow=open;dashed=1;endSize=8;shadow=0;strokeWidth=1;sketch=0;align=center;labelBorderColor=#CCCCCC;fontSize=9;exitX=0.978;exitY=0.901;exitDx=0;exitDy=0;exitPerimeter=0;" edge="1" parent="1">
          <mxGeometry x="0.0004" relative="1" as="geometry">
            <mxPoint x="1097.2200000000007" y="1985" as="targetPoint" />
            <mxPoint x="987" y="1985.1999999999998" as="sourcePoint" />
            <Array as="points">
              <mxPoint x="1022.22" y="1985" />
            </Array>
            <mxPoint as="offset" />
          </mxGeometry>
        </mxCell>
        <mxCell id="1gG3ntM72JU_8PpS5YJa-271" value="activateLeader(&#xa;LeaderCard)" style="verticalAlign=middle;endArrow=block;shadow=0;strokeWidth=1;labelBorderColor=#CCCCCC;fontSize=9;" edge="1" parent="1">
          <mxGeometry x="-0.0393" relative="1" as="geometry">
            <mxPoint x="1106.9999999999995" y="1994" as="sourcePoint" />
            <mxPoint x="1216.9999999999995" y="1994" as="targetPoint" />
            <Array as="points">
              <mxPoint x="1162" y="1994" />
            </Array>
            <mxPoint as="offset" />
          </mxGeometry>
        </mxCell>
        <mxCell id="1gG3ntM72JU_8PpS5YJa-272" value="send(&#xa;message*)" style="verticalAlign=middle;endArrow=block;shadow=0;strokeWidth=1;labelBorderColor=#CCCCCC;fontSize=9;exitX=-0.112;exitY=0.628;exitDx=0;exitDy=0;exitPerimeter=0;entryX=0.879;entryY=0.15;entryDx=0;entryDy=0;entryPerimeter=0;" edge="1" parent="1" source="1gG3ntM72JU_8PpS5YJa-260">
          <mxGeometry x="0.0143" relative="1" as="geometry">
            <mxPoint x="1218.5900000000001" y="2019.8" as="sourcePoint" />
            <mxPoint x="1106.9999999999995" y="2019" as="targetPoint" />
            <Array as="points" />
            <mxPoint as="offset" />
          </mxGeometry>
        </mxCell>
        <mxCell id="1gG3ntM72JU_8PpS5YJa-273" value="Constructor(serverPort) " style="verticalAlign=middle;endArrow=block;shadow=0;strokeWidth=1;labelBorderColor=#CCCCCC;fontSize=9;" edge="1" parent="1">
          <mxGeometry relative="1" as="geometry">
            <mxPoint x="1096.9999999999995" y="2034" as="sourcePoint" />
            <mxPoint x="747" y="2034" as="targetPoint" />
            <Array as="points" />
          </mxGeometry>
        </mxCell>
        <mxCell id="1gG3ntM72JU_8PpS5YJa-274" value="receive(message)" style="verticalAlign=middle;endArrow=block;shadow=0;strokeWidth=1;labelBorderColor=#CCCCCC;fontSize=9;entryX=0.879;entryY=0.15;entryDx=0;entryDy=0;entryPerimeter=0;exitX=0.048;exitY=0.854;exitDx=0;exitDy=0;exitPerimeter=0;" edge="1" parent="1" source="1gG3ntM72JU_8PpS5YJa-248">
          <mxGeometry x="0.0143" relative="1" as="geometry">
            <mxPoint x="427" y="2064" as="sourcePoint" />
            <mxPoint x="227" y="2064" as="targetPoint" />
            <Array as="points" />
            <mxPoint as="offset" />
          </mxGeometry>
        </mxCell>
        <mxCell id="1gG3ntM72JU_8PpS5YJa-275" value="if the Leader Card can be activate message* is ServerMessageOK, if&amp;nbsp;&lt;br&gt;its unusable message* is ServerMessageError" style="text;html=1;align=center;verticalAlign=middle;resizable=0;points=[];autosize=1;fontSize=9;strokeColor=#000000;dashed=1;" vertex="1" parent="1">
          <mxGeometry x="1281.81" y="1604" width="290" height="30" as="geometry" />
        </mxCell>
        <mxCell id="1gG3ntM72JU_8PpS5YJa-277" value="" style="verticalAlign=middle;endArrow=open;dashed=1;endSize=8;shadow=0;strokeWidth=1;sketch=0;align=center;labelBorderColor=#CCCCCC;fontSize=9;entryX=1.019;entryY=0.627;entryDx=0;entryDy=0;entryPerimeter=0;" edge="1" parent="1" source="1gG3ntM72JU_8PpS5YJa-275">
          <mxGeometry x="0.0004" relative="1" as="geometry">
            <mxPoint x="1227" y="1619.4" as="targetPoint" />
            <mxPoint x="1241.81" y="1529" as="sourcePoint" />
            <Array as="points" />
            <mxPoint as="offset" />
          </mxGeometry>
        </mxCell>
        <mxCell id="1gG3ntM72JU_8PpS5YJa-278" value="if the Depot Layout is Legal message* is ServerMessageOK, if&amp;nbsp;&lt;br&gt;its illegal message* is ServerMessageError" style="text;html=1;align=center;verticalAlign=middle;resizable=0;points=[];autosize=1;fontSize=9;strokeColor=#000000;dashed=1;" vertex="1" parent="1">
          <mxGeometry x="1294.81" y="2004" width="265" height="30" as="geometry" />
        </mxCell>
        <mxCell id="1gG3ntM72JU_8PpS5YJa-279" value="" style="verticalAlign=middle;endArrow=open;dashed=1;endSize=8;shadow=0;strokeWidth=1;sketch=0;align=center;labelBorderColor=#CCCCCC;fontSize=9;entryX=1.019;entryY=0.627;entryDx=0;entryDy=0;entryPerimeter=0;" edge="1" parent="1" source="1gG3ntM72JU_8PpS5YJa-278">
          <mxGeometry x="0.0004" relative="1" as="geometry">
            <mxPoint x="1227" y="2019.4" as="targetPoint" />
            <mxPoint x="1241.81" y="1929" as="sourcePoint" />
            <Array as="points" />
            <mxPoint as="offset" />
          </mxGeometry>
        </mxCell>
      </root>
    </mxGraphModel>
  </diagram>
</mxfile>
